<?xml version="1.0" encoding="utf-8"?><!-- Uploaded to: SVG Repo, www.svgrepo.com, Generator: SVG Repo Mixer Tools -->
<svg fill="#000000" width="800px" height="800px" viewBox="0 0 24 24" id="game-consol" data-name="Flat Color" xmlns="http://www.w3.org/2000/svg" class="icon flat-color"><path id="primary" d="M21.42,8.64a5,5,0,0,0-5-4.64H7.57a5,5,0,0,0-5,4.64l-.57,8a3.11,3.11,0,0,0,.89,2.42A3.16,3.16,0,0,0,5.3,20a3.23,3.23,0,0,0,2.91-2.61L8.94,14h6.12l.73,3.39A3.23,3.23,0,0,0,18.7,20h.17a3.14,3.14,0,0,0,2.23-.93A3.11,3.11,0,0,0,22,16.65Z" style="fill: rgb(0, 0, 0);"></path><path id="secondary" d="M8,4l.31,1.24a1,1,0,0,0,1,.76h5.44a1,1,0,0,0,1-.76L16,4Z" style="fill: rgb(44, 169, 188);"></path></svg>